<svg id="svg" xmlns="http://www.w3.org/2000/svg" xmlns:xlink="http://www.w3.org/1999/xlink" width="400" height="397.3333333333333" viewBox="0, 0, 400,397.3333333333333"><g id="svgg"><path id="path0" d="M192.667 53.963 C 190.458 54.761,186.388 55.442,182.430 55.677 C 178.817 55.891,174.767 56.476,173.430 56.976 C 172.094 57.476,169.404 58.049,167.454 58.250 C 165.504 58.451,162.918 59.226,161.709 59.974 C 160.453 60.750,158.363 61.333,156.836 61.333 C 155.363 61.333,153.817 61.751,153.391 62.264 C 152.967 62.775,151.505 63.403,150.143 63.658 C 148.781 63.913,146.917 64.533,146.000 65.035 C 145.083 65.537,142.383 66.864,140.000 67.984 C 133.479 71.050,125.953 75.231,123.333 77.245 C 121.200 78.885,119.978 79.753,115.697 82.667 C 111.680 85.401,107.465 89.197,98.204 98.422 C 89.137 107.452,86.921 109.984,82.820 116.000 C 82.195 116.917,81.305 118.063,80.842 118.548 C 80.379 119.032,80.000 119.710,80.000 120.054 C 80.000 120.399,79.025 122.102,77.833 123.840 C 74.149 129.213,64.000 151.101,64.000 153.673 C 64.000 154.268,63.648 155.410,63.217 156.210 C 56.839 168.072,55.180 209.387,60.321 228.333 C 60.819 230.167,61.435 233.017,61.692 234.667 C 61.948 236.317,62.536 238.417,62.999 239.333 C 63.461 240.250,64.042 242.050,64.291 243.333 C 65.041 247.214,73.352 265.697,76.582 270.670 C 78.357 273.402,79.255 274.888,80.408 277.000 C 81.008 278.100,82.512 280.250,83.750 281.779 C 84.987 283.307,86.000 284.758,86.000 285.002 C 86.000 285.689,93.704 294.311,100.000 300.671 C 109.245 310.010,125.237 321.910,134.341 326.225 C 136.537 327.266,138.783 328.393,139.333 328.730 C 139.883 329.066,140.783 329.509,141.333 329.714 C 141.883 329.918,143.533 330.634,145.000 331.305 C 148.797 333.040,154.533 335.134,157.805 335.979 C 159.348 336.377,160.765 336.952,160.953 337.257 C 161.142 337.562,162.980 338.010,165.039 338.252 C 167.097 338.494,169.581 339.101,170.557 339.602 C 171.534 340.102,174.583 340.721,177.333 340.978 C 180.083 341.234,184.027 341.869,186.096 342.389 C 191.209 343.672,213.446 343.673,219.000 342.389 C 221.200 341.881,225.250 341.251,228.000 340.988 C 230.750 340.726,233.820 340.091,234.822 339.578 C 235.824 339.064,238.074 338.457,239.822 338.228 C 241.570 338.000,243.793 337.413,244.763 336.925 C 245.733 336.437,247.683 335.745,249.097 335.386 C 252.892 334.423,258.455 332.339,259.461 331.504 C 259.945 331.102,261.239 330.554,262.337 330.285 C 263.435 330.017,265.049 329.242,265.923 328.565 C 266.798 327.888,268.036 327.333,268.675 327.333 C 269.314 327.333,270.201 326.895,270.645 326.359 C 271.090 325.823,272.025 325.204,272.724 324.982 C 273.422 324.760,276.678 322.799,279.958 320.623 C 283.239 318.447,286.240 316.667,286.628 316.667 C 287.016 316.667,287.333 316.431,287.333 316.143 C 287.333 315.663,289.566 313.829,294.404 310.333 C 302.811 304.259,322.107 282.359,325.380 275.176 C 325.759 274.346,326.728 272.568,327.534 271.226 C 331.779 264.158,333.333 261.264,333.333 260.425 C 333.333 259.914,333.760 259.143,334.281 258.710 C 334.803 258.277,335.426 256.758,335.667 255.333 C 335.907 253.909,336.511 252.405,337.009 251.992 C 337.507 251.579,338.119 250.287,338.369 249.121 C 338.620 247.954,339.152 246.400,339.553 245.667 C 340.601 243.747,342.586 236.470,343.644 230.667 C 344.145 227.917,344.907 224.767,345.336 223.667 C 347.648 217.742,347.441 178.604,345.064 172.083 C 344.479 170.478,344.000 168.219,344.000 167.061 C 344.000 165.904,343.538 163.317,342.972 161.312 C 342.407 159.307,341.647 156.503,341.283 155.080 C 340.919 153.658,340.181 151.866,339.644 151.098 C 339.106 150.331,338.667 149.241,338.667 148.675 C 338.667 148.110,338.067 146.527,337.333 145.159 C 336.600 143.791,335.991 142.295,335.979 141.836 C 335.968 141.376,335.220 139.500,334.319 137.667 C 333.417 135.833,332.676 133.958,332.673 133.500 C 332.669 133.042,332.396 132.667,332.065 132.667 C 331.734 132.667,331.143 131.842,330.751 130.833 C 330.359 129.825,329.288 127.800,328.370 126.333 C 327.452 124.867,326.209 122.767,325.608 121.667 C 323.697 118.171,316.510 108.421,314.044 105.979 C 312.736 104.684,308.913 100.784,305.548 97.312 C 299.075 90.635,291.722 84.200,287.112 81.179 C 285.584 80.177,284.033 79.119,283.667 78.828 C 281.927 77.444,278.149 74.902,276.492 74.001 C 267.940 69.351,257.036 64.000,256.112 64.000 C 255.490 64.000,253.861 63.400,252.493 62.667 C 251.124 61.933,249.024 61.333,247.826 61.333 C 246.627 61.333,244.478 60.707,243.048 59.941 C 241.619 59.175,238.774 58.383,236.725 58.182 C 234.676 57.981,232.227 57.427,231.283 56.951 C 230.339 56.475,226.311 55.897,222.333 55.666 C 217.602 55.392,214.391 54.868,213.050 54.151 C 209.744 52.384,197.359 52.270,192.667 53.963 M224.000 59.582 C 235.219 61.783,242.389 63.507,245.457 64.742 C 247.175 65.434,249.042 66.000,249.606 66.000 C 252.330 66.000,272.724 76.270,280.690 81.653 C 306.075 98.809,325.905 123.476,335.238 149.510 C 335.996 151.624,337.228 154.930,337.975 156.857 C 338.722 158.783,339.333 160.907,339.333 161.576 C 339.333 162.245,339.915 164.790,340.625 167.230 C 344.514 180.588,344.643 215.442,340.851 228.667 C 340.273 230.683,339.579 233.533,339.310 235.000 C 333.937 264.226,306.644 300.251,275.000 319.883 C 269.329 323.402,252.690 331.333,250.980 331.333 C 250.438 331.333,248.876 331.933,247.507 332.667 C 246.139 333.400,244.287 334.000,243.391 334.000 C 242.494 334.000,239.790 334.589,237.381 335.308 C 217.212 341.332,190.817 341.308,167.000 335.245 C 155.999 332.444,152.916 331.365,144.667 327.428 C 143.017 326.641,141.367 325.990,141.000 325.983 C 140.633 325.976,139.583 325.384,138.667 324.667 C 137.750 323.950,136.609 323.356,136.130 323.348 C 135.652 323.340,133.493 322.133,131.333 320.667 C 129.174 319.200,127.239 318.000,127.034 318.000 C 126.442 318.000,118.084 312.082,113.333 308.301 C 105.001 301.668,92.353 287.885,85.213 277.659 C 82.857 274.284,74.000 258.994,74.000 258.301 C 74.000 258.095,73.353 256.518,72.562 254.797 C 66.763 242.173,63.905 231.204,61.674 213.000 C 59.201 192.825,62.023 169.095,69.043 151.030 C 73.659 139.153,74.973 136.490,82.548 123.667 C 95.267 102.134,125.296 77.249,149.333 68.322 C 161.772 63.702,168.931 61.620,175.667 60.664 C 178.233 60.300,182.583 59.564,185.333 59.029 C 192.231 57.686,216.073 58.027,224.000 59.582 M169.960 90.313 C 164.435 93.192,161.974 98.770,164.270 103.210 C 165.178 104.966,172.741 111.333,173.919 111.333 C 174.241 111.333,174.827 111.724,175.223 112.201 C 175.971 113.101,181.049 115.726,192.152 120.951 C 200.516 124.886,201.073 125.689,200.081 132.360 C 198.847 140.658,198.474 166.901,199.239 191.648 C 200.045 217.740,200.236 216.373,195.296 219.772 C 190.435 223.118,183.333 229.422,183.333 230.393 C 183.333 231.985,185.181 231.440,187.487 229.167 C 190.278 226.416,193.707 223.853,196.577 222.375 C 199.679 220.777,200.333 221.678,200.333 227.547 C 200.333 232.933,200.141 233.292,193.613 240.104 C 188.254 245.696,188.570 246.959,194.256 242.667 C 201.897 236.897,203.431 242.233,196.667 251.055 C 192.877 255.998,191.900 258.000,193.278 258.000 C 193.614 258.000,194.949 256.725,196.244 255.167 C 199.059 251.779,199.672 252.110,201.010 257.738 C 201.759 260.890,201.790 262.428,201.167 265.521 C 200.479 268.937,202.930 274.553,204.242 272.567 C 204.327 272.439,204.751 271.508,205.184 270.500 C 205.918 268.790,207.333 267.957,207.333 269.234 C 207.333 269.547,208.233 270.744,209.333 271.895 C 210.433 273.046,211.333 274.423,211.333 274.955 C 211.333 275.486,211.679 276.135,212.102 276.396 C 213.352 277.169,212.150 271.394,210.425 268.337 C 207.612 263.353,207.002 262.345,205.833 260.748 C 204.379 258.761,204.347 257.096,205.739 255.940 C 206.803 255.057,208.114 256.010,208.843 258.195 " stroke="none" fill="#000000" fill-rule="evenodd"></path></g></svg>
